<?xml version="1.0" encoding="UTF-8" standalone="no"?>
<!-- Generator: Adobe Illustrator 19.0.0, SVG Export Plug-In . SVG Version: 6.00 Build 0)  -->

<svg
   xmlns:dc="http://purl.org/dc/elements/1.1/"
   xmlns:cc="http://creativecommons.org/ns#"
   xmlns:rdf="http://www.w3.org/1999/02/22-rdf-syntax-ns#"
   xmlns:svg="http://www.w3.org/2000/svg"
   xmlns="http://www.w3.org/2000/svg"
   xmlns:sodipodi="http://sodipodi.sourceforge.net/DTD/sodipodi-0.dtd"
   xmlns:inkscape="http://www.inkscape.org/namespaces/inkscape"
   version="1.1"
   id="Calque_1"
   x="0px"
   y="0px"
   viewBox="0 0 800 600"
   style="enable-background:new 0 0 800 600;"
   xml:space="preserve"
   sodipodi:docname="image.svg"
   inkscape:version="0.92.4 5da689c313, 2019-01-14"><metadata
   id="metadata52"><rdf:RDF><cc:Work
       rdf:about=""><dc:format>image/svg+xml</dc:format><dc:type
         rdf:resource="http://purl.org/dc/dcmitype/StillImage" /><dc:title /></cc:Work></rdf:RDF></metadata><defs
   id="defs50"><marker
     inkscape:stockid="Arrow1Lstart"
     orient="auto"
     refY="0.0"
     refX="0.0"
     id="Arrow1Lstart"
     style="overflow:visible"
     inkscape:isstock="true"><path
       id="path900"
       d="M 0.0,0.0 L 5.0,-5.0 L -12.5,0.0 L 5.0,5.0 L 0.0,0.0 z "
       style="fill-rule:evenodd;stroke:#000000;stroke-width:1pt;stroke-opacity:1;fill:#000000;fill-opacity:1"
       transform="scale(0.8) translate(12.5,0)" /></marker><linearGradient
     id="linearGradient-1"
     y2="97.845656"
     x2="49.02155"
     y1="-0.079835396"
     x1="49.02155"
     gradientTransform="scale(0.46153975,2.1666606)"
     gradientUnits="userSpaceOnUse"><stop
       id="stop5008"
       offset="0%"
       stop-opacity="0.800235524"
       stop-color="#16B0ED" /><stop
       id="stop5010"
       offset="100%"
       stop-opacity="0.83700023"
       stop-color="#0F59B2" /></linearGradient><linearGradient
     id="linearGradient-2"
     y2="98.851547"
     x2="326.17366"
     y1="-0.069164939"
     x1="326.17366"
     gradientTransform="scale(0.46628455,2.1446132)"
     gradientUnits="userSpaceOnUse"><stop
       id="stop5013"
       offset="0%"
       stop-color="#7DB643" /><stop
       id="stop5015"
       offset="100%"
       stop-color="#367533" /></linearGradient><linearGradient
     id="linearGradient-3"
     y2="178.55785"
     x2="103.88479"
     y1="-0.11508822"
     x1="103.88479"
     gradientTransform="scale(0.84203823,1.1875945)"
     gradientUnits="userSpaceOnUse"><stop
       id="stop5018"
       offset="0%"
       stop-opacity="0.8"
       stop-color="#88C649" /><stop
       id="stop5020"
       offset="100%"
       stop-opacity="0.84"
       stop-color="#439240" /></linearGradient></defs><sodipodi:namedview
   pagecolor="#ffffff"
   bordercolor="#666666"
   borderopacity="1"
   objecttolerance="10"
   gridtolerance="10"
   guidetolerance="10"
   inkscape:pageopacity="0"
   inkscape:pageshadow="2"
   inkscape:window-width="3840"
   inkscape:window-height="2050"
   id="namedview48"
   showgrid="false"
   inkscape:zoom="1.5733334"
   inkscape:cx="602.84267"
   inkscape:cy="139.7718"
   inkscape:window-x="0"
   inkscape:window-y="54"
   inkscape:window-maximized="1"
   inkscape:current-layer="g8850" />
<style
   type="text/css"
   id="style2">
	.st0{fill:none;stroke:#5D5C74;stroke-width:4;stroke-miterlimit:10;}
	.st1{fill:#4FC1EA;stroke:#5D5C74;stroke-width:3;stroke-miterlimit:10;}
	.st2{fill:#5C5C74;}
	.st3{fill:#344258;stroke:#5D5C74;stroke-width:4;stroke-miterlimit:10;}
	.st4{fill:#FBD7CE;}
	.st5{fill:#E4E6E9;}
	.st6{fill:#CDCFD2;}
	.st7{fill:#5D5C74;}
	.st8{fill:#FFFFFF;}
	.st9{fill:#DFE1E2;}
	.st10{fill:#EDEEEF;}
	.st11{fill:none;stroke:#5D5C74;stroke-width:3;stroke-miterlimit:10;}
	.st12{fill:none;stroke:#F39200;stroke-width:3;stroke-miterlimit:10;}
	.st13{fill:none;stroke:#4FC1EB;stroke-width:3;stroke-miterlimit:10;}
</style>

<g
   inkscape:groupmode="layer"
   id="layer2"
   inkscape:label="Old"
   style="display:inline"><g
     id="g4639"
     transform="translate(0,-4)"><g
       id="g8854"><path
         inkscape:connector-curvature="0"
         id="path887-6"
         d="m 89.80945,216.57695 61.22424,53.56335 39.06202,-44.64886 -51.15905,-7.73353 -32.25958,-20.46109 z"
         style="display:inline;fill:#c6cad0;fill-opacity:1;fill-rule:evenodd;stroke:none;stroke-width:1px;stroke-linecap:butt;stroke-linejoin:miter;stroke-opacity:1" /><path
         id="path887-3-7"
         d="m 102.24682,202.36072 61.22424,53.56335 -39.06203,44.64887 L 109.9457,250.8953 85.379184,221.64085 Z"
         style="display:inline;fill:#c6cad0;fill-opacity:1;fill-rule:evenodd;stroke:none;stroke-width:1px;stroke-linecap:butt;stroke-linejoin:miter;stroke-opacity:1"
         inkscape:connector-curvature="0" /></g></g><g
     transform="translate(-2.5543,10.7953)"
     id="XMLID_2188_"><path
       inkscape:connector-curvature="0"
       id="XMLID_7308_"
       class="st1"
       d="m 579.84748,265.3839 c -30.76101,21.84577 -35.41791,25.6638 -59.82545,24.49746 -13.70447,-0.65488 -23.62318,-7.05506 -50.93505,-24.65167 -1.5101,8.76995 -39.27314,-77.62787 -19.89266,-131.28934 C 463.70227,99.04262 484.8,80.3 523.1,80.3 c 36.1,0 59.5,11.5 74.3,43.7 12.2,26.2 -1.27286,111.41611 -17.55252,141.3839 z"
       style="fill:#4fc1ea;stroke:#5d5c74;stroke-width:3;stroke-miterlimit:10"
       sodipodi:nodetypes="csccscc" /><path
       style="display:inline;fill:#5d5c74;fill-opacity:1;stroke-width:1.11534357"
       d="m 171.44531,246.9375 -27.39453,31.5 c 8.56127,3.3483 18.60246,1.2524 24.95313,-6.08203 6.32849,-7.30886 6.98656,-17.50371 2.4414,-25.41797 z"
       id="XMLID_7262_-5"
       inkscape:connector-curvature="0"
       transform="translate(2.5543,-14.7953)" /><path
       style="display:inline;fill:#edeeef"
       d="m 169.58984,249.07031 -24.0957,27.70703 c 7.46104,2.49953 15.97056,0.51244 21.43359,-5.79687 5.44265,-6.28577 6.20436,-14.95071 2.66211,-21.91016 z"
       id="XMLID_7262_"
       inkscape:connector-curvature="0"
       transform="translate(2.5543,-14.7953)" /><path
       style="display:inline;fill:#fbd7ce;fill-opacity:1;fill-rule:evenodd;stroke:#5c5c74;stroke-width:2.26771665;stroke-linecap:butt;stroke-linejoin:miter;stroke-miterlimit:4;stroke-dasharray:none;stroke-opacity:1"
       d="m 590.6676,188.3778 c 0,0 15.34752,-16.91636 14.61864,8.26271 -1.03745,35.83847 -14.61864,29.87289 -14.61864,29.87289 z"
       id="path905-6"
       inkscape:connector-curvature="0"
       sodipodi:nodetypes="cscc" /><path
       style="fill:#fbd7ce;fill-opacity:1;fill-rule:evenodd;stroke:#5c5c74;stroke-width:2.26771665;stroke-linecap:butt;stroke-linejoin:miter;stroke-miterlimit:4;stroke-dasharray:none;stroke-opacity:1"
       d="m 454.6676,188.3778 c 0,0 -15.34752,-16.91636 -14.61864,8.26271 1.03745,35.83847 14.61864,29.87289 14.61864,29.87289 z"
       id="path905"
       inkscape:connector-curvature="0"
       sodipodi:nodetypes="cscc" /><line
       id="XMLID_7309_"
       class="st0"
       x1="50.299999"
       y1="513.70001"
       x2="759.5"
       y2="513.70001"
       style="fill:none;stroke:#5d5c74;stroke-width:4;stroke-miterlimit:10" /><path
       inkscape:connector-curvature="0"
       id="XMLID_7304_"
       class="st3"
       d="m 392,406.9 c 0,-54.9 59.2,-99.5 132.2,-99.5 73,0 132.2,44.5 132.2,99.5"
       style="fill:#293443;stroke:#5d5c74;stroke-width:4;stroke-miterlimit:10;fill-opacity:1" /><path
       inkscape:connector-curvature="0"
       id="XMLID_7303_"
       class="st4"
       d="m 569.61183,136.46 c -41.46105,16.44109 -50.21536,18.34548 -88.28467,1.92405 C 473.74277,135.11247 457.65764,131.76867 455.2,170.6 v 61.2 c 0,23.6 14.8,53 37.9,67.8 l 0,19.94534 c 0,13.2 8.3,26.8536 30.2,26.8536 21.3,0 30.6,-14.20974 30.6,-27.40974 V 301.2 c 24.7,-14.2 38,-45 38,-69.5 V 154 c -2.66992,-5.02966 -2.4581,-17.48802 -22.28817,-17.54 z"
       style="opacity:1;vector-effect:none;fill:#fbd7ce;fill-opacity:1;stroke-width:1;stroke-linecap:butt;stroke-linejoin:miter;stroke-miterlimit:4;stroke-dasharray:none;stroke-dashoffset:0;stroke-opacity:1"
       sodipodi:nodetypes="cscscssscccc" /><g
       id="XMLID_7298_"
       transform="translate(0,10)"><path
         inkscape:connector-curvature="0"
         id="XMLID_7299_"
         class="st2"
         d="m 537.26165,248.67669 c 0,0 -5.9,6.8 -13.2,6.8 -7.3,0 -13.2,-6.8 -13.2,-6.8 0,0 5.9,0.8 13.2,0.8 7.3,0 13.2,-0.8 13.2,-0.8 z"
         style="fill:#5c5c74" /></g><g
       id="XMLID_7296_"
       transform="translate(0,6)"><path
         inkscape:connector-curvature="0"
         id="XMLID_7297_"
         class="st2"
         d="m 525,229.8 c -0.1,0 -0.2,0 -0.3,0 -2.1,-0.1 -3.9,-0.9 -4.9,-2.3 -0.8,-1.1 -1,-2.5 -0.6,-3.9 l 1.2,0.4 c -0.3,1 -0.2,1.9 0.4,2.7 0.8,1.1 2.2,1.8 3.9,1.8 2,0 3.8,-0.7 4.7,-1.9 0.6,-0.8 0.6,-1.8 0.2,-2.9 l 1.2,-0.5 c 0.8,1.9 0.3,3.3 -0.3,4.1 -1,1.5 -3.2,2.5 -5.5,2.5 z"
         style="fill:#5c5c74" /></g><path
       inkscape:connector-curvature="0"
       id="XMLID_7295_-6"
       class="st5"
       d="m 672.04243,377.84852 0.0162,157.18722 c -0.0526,8.2742 -5.45815,17.06028 -19.38817,17.06523 l -263.46831,0.0936 c -8.77904,0.34435 -15.77609,-7.1556 -15.781,-15.42997 l -0.0943,-158.90106 c -0.42409,-9.38649 6.796,-16.61111 16.44857,-16.58854 l 265.77232,0.62143 c 10.68452,0.0983 16.54729,7.67786 16.4947,15.95207"
       style="display:inline;fill:#757575;fill-opacity:1;stroke-width:1.01835585"
       sodipodi:nodetypes="ccscscscc" /><path
       inkscape:connector-curvature="0"
       id="XMLID_7295_"
       class="st5"
       d="m 670.3,378.6 -0.0794,156.6 c -0.004,8.1 -6.20283,13.47194 -14.30275,13.50827 L 390.2,549.9 c -8.09992,0.0363 -14.7,-6.6 -14.7,-14.7 V 378.4 c 0,-8.1 6.6,-14.7 14.7,-14.7 h 265.4 c 8.1,0.2 14.7,6.8 14.7,14.9"
       style="fill:#515151;fill-opacity:1"
       sodipodi:nodetypes="csssssscc" /><path
       inkscape:connector-curvature="0"
       id="XMLID_7294_"
       class="st6"
       d="m 670.3,518.1 -0.47669,17.83559 c -0.21642,8.09711 -7.8712,13.73685 -15.97119,13.74661 L 390.2,550 c -8.09999,0.01 -14.7,-6.6 -14.7,-14.7 V 518 Z"
       style="fill:#454545;fill-opacity:1"
       sodipodi:nodetypes="csssscc" /><path
       inkscape:connector-curvature="0"
       id="XMLID_7283_"
       class="st9"
       d="m 225,530.6 h 43 v -64.1 h -43 z"
       style="fill:#dfe1e2" /><path
       inkscape:connector-curvature="0"
       id="XMLID_7280_"
       class="st7"
       d="M 228.1,527.5 H 265 v -57.9 h -36.9 z m 40,6.2 h -43 c -1.7,0 -3.1,-1.4 -3.1,-3.1 v -64.1 c 0,-1.7 1.4,-3.1 3.1,-3.1 h 43 c 1.7,0 3.1,1.4 3.1,3.1 v 64.1 c -0.2,1.7 -1.4,3.1 -3.1,3.1 z"
       style="fill:#5d5c74" /><path
       inkscape:connector-curvature="0"
       id="XMLID_7275_"
       class="st7"
       d="m 268.1,522.1 c -1.7,0 -3.1,-1.4 -3.1,-3.1 0,-1.7 1.4,-3.1 3.1,-3.1 9.5,0 17.3,-7.8 17.3,-17.3 0,-9.5 -7.8,-17.3 -17.3,-17.3 -1.7,0 -3.1,-1.4 -3.1,-3.1 0,-1.7 1.4,-3.1 3.1,-3.1 13,0 23.4,10.6 23.4,23.6 0,12.9 -10.6,23.4 -23.4,23.4 m -21.5,-63.6 c -0.5,0 -1,-0.2 -1.4,-0.7 -0.5,-0.7 -5.5,-7.6 -4.5,-12.3 0.5,-2.1 1.7,-3.6 3.1,-5.2 1.6,-1.9 3.1,-3.6 3.3,-6.6 0.2,-1 1,-1.7 2.1,-1.7 1,0.2 1.7,1 1.7,2.1 -0.3,4.2 -2.4,6.6 -4.2,8.7 -1,1.2 -2.1,2.4 -2.3,3.6 -0.5,2.4 2.4,7.3 3.8,9.2 0.7,0.9 0.5,1.9 -0.3,2.6 -0.6,0.2 -0.9,0.3 -1.3,0.3 M 236,457.2 c -0.2,0 -0.3,0 -0.5,-0.2 -0.3,-0.3 -3.8,-2.6 -4.2,-5 -0.2,-1 0.2,-2.1 0.7,-2.9 0.5,-1.2 0.9,-2.3 0.5,-3.6 -0.2,-0.5 0.2,-1 0.7,-1 0.5,-0.2 1,0.2 1,0.7 0.5,2.1 -0.2,3.5 -0.5,4.7 -0.3,0.7 -0.5,1.4 -0.5,2.1 0.2,1 2.1,2.8 3.3,3.8 0.3,0.3 0.5,0.9 0.2,1.2 -0.1,0 -0.3,0.2 -0.7,0.2 m 21.2,0.3 c -0.3,0 -0.7,-0.2 -0.9,-0.7 -0.2,-0.5 -1.6,-4.5 -0.3,-6.6 0.5,-0.9 1.4,-1.6 2.3,-2.1 1,-0.7 1.9,-1.2 2.6,-2.6 0.2,-0.5 0.7,-0.7 1.2,-0.3 0.3,0.2 0.7,0.7 0.5,1.2 -0.9,1.9 -2.3,2.8 -3.3,3.5 -0.7,0.5 -1.4,0.9 -1.6,1.4 -0.5,1 0,3.5 0.5,5 0.2,0.5 0,1 -0.5,1.2 h -0.5"
       style="fill:#5d5c74" /><path
       inkscape:connector-curvature="0"
       id="XMLID_7271_"
       class="st8"
       d="m 254.87881,517.93559 c -1.5,0 -2.7,-1.1 -2.7,-2.7 v -20 c 0,-1.5 1.1,-2.7 2.7,-2.7 1.5,0 2.7,1.1 2.7,2.7 v 20 c 0,1.6 -1.2,2.7 -2.7,2.7 0,0.2 0,0.2 0,0 m 0,22.8 c -1.5,0 -2.7,-1.1 -2.7,-2.7 v -10.1 c 0,-1.5 1.1,-2.7 2.7,-2.7 1.5,0 2.7,1.1 2.7,2.7 v 10.1 c 0,1.4 -1.2,2.7 -2.7,2.7"
       style="fill:#ffffff" /><path
       inkscape:connector-curvature="0"
       id="XMLID_7265_"
       class="st7"
       d="m 112.8,532.3 c -0.5,0 -1,-0.2 -1.3,-0.6 L 72.1,483.3 h 4.4 l 37.1,45.6 h 64.2 c 0.9,0 1.7,0.8 1.7,1.7 v 9 c 0,0.9 -0.8,1.7 -1.7,1.7 l -137.5,1.4 c 0,0 0,0 0,0 -0.9,0 -1.7,-0.8 -1.7,-1.7 0,-0.9 0.7,-1.7 1.7,-1.7 l 135.8,-1.4 v -5.6 z"
       style="fill:#5d5c74" /><path
       inkscape:connector-curvature="0"
       id="XMLID_7255_"
       class="st5"
       d="M 50.2,473.7 C 39,473.7 30,464.6 30,453.5 c 0,-11.2 9.1,-20.2 20.2,-20.2 11.2,0 20.2,9.1 20.2,20.2 0,11.2 -9.1,20.2 -20.2,20.2 z"
       style="fill:#e4e6e9" /><path
       inkscape:connector-curvature="0"
       id="XMLID_7251_"
       class="st7"
       d="m 72.2,483.3 h 4.4 L 66.4,470.7 c 4.6,-4.3 7.5,-10.4 7.5,-17.2 0,-10.1 -6.4,-18.7 -15.3,-22.1 l 2.8,-8.9 h -3.6 l -2.5,7.9 c -1.6,-0.4 -3.4,-0.6 -5.1,-0.6 -13,0 -23.6,10.6 -23.6,23.6 0,13 10.6,23.6 23.6,23.6 5,0 9.7,-1.6 13.5,-4.3 z m -22,-9.6 C 39,473.7 30,464.6 30,453.5 c 0,-11.2 9.1,-20.2 20.2,-20.2 11.2,0 20.2,9.1 20.2,20.2 0,11.2 -9.1,20.2 -20.2,20.2 z"
       style="fill:#5d5c74" /><rect
       id="XMLID_7247_"
       x="40.299999"
       y="532.29999"
       class="st6"
       width="135.8"
       height="7"
       style="fill:#cdcfd2" /><g
       id="XMLID_7240_"
       transform="translate(0,6)"><path
         inkscape:connector-curvature="0"
         id="XMLID_7243_"
         class="st2"
         d="m 475.8,189.7 c -0.6,0 -1.3,-0.2 -1.8,-0.7 -1.1,-1 -1.1,-2.6 -0.1,-3.7 3.3,-3.5 7.9,-5.3 12.3,-4.9 3.7,0.3 6.8,2.2 8.7,5.1 0.8,1.2 0.4,2.8 -0.8,3.6 -1.2,0.8 -2.8,0.4 -3.6,-0.8 -1,-1.6 -2.7,-2.5 -4.7,-2.7 -2.8,-0.3 -5.8,1 -8,3.3 -0.6,0.5 -1.3,0.8 -2,0.8 z"
         style="fill:#5c5c74" /></g><g
       id="XMLID_7234_"
       transform="translate(0,6)"><path
         inkscape:connector-curvature="0"
         id="XMLID_7235_"
         class="st2"
         d="m 574.4,189.7 c -0.7,0 -1.4,-0.3 -1.9,-0.8 -2.2,-2.3 -5.4,-3.6 -8.6,-3.4 -2.6,0.1 -4.8,1.2 -6.2,3 -0.9,1.2 -2.5,1.4 -3.7,0.5 -1.1,-0.9 -1.4,-2.5 -0.5,-3.7 2.3,-3 5.9,-4.8 10,-5.1 4.8,-0.3 9.4,1.6 12.7,5 1,1 1,2.7 -0.1,3.7 -0.4,0.5 -1,0.8 -1.7,0.8 z"
         style="fill:#5c5c74" /></g><path
       inkscape:connector-curvature="0"
       id="XMLID_7233_"
       class="st12"
       d="m 593.6,24.1 c -1.3,1.1 -3,1.8 -4.9,1.8 -4.1,0 -7.4,-3.3 -7.4,-7.4 0,-4.1 3.3,-7.4 7.4,-7.4 4.1,0 7.4,3.3 7.4,7.4 0,1.3 -0.3,2.5 -0.9,3.5"
       style="fill:none;stroke:#f39200;stroke-width:3;stroke-miterlimit:10" /><path
       inkscape:connector-curvature="0"
       id="XMLID_7231_"
       class="st13"
       d="m 927.6,36 c -1.2,1 -2.8,1.7 -4.5,1.7 -3.8,0 -6.9,-3.1 -6.9,-6.9 0,-3.8 3.1,-6.9 6.9,-6.9 3.8,0 6.9,3.1 6.9,6.9 0,1.2 -0.3,2.3 -0.8,3.2"
       style="fill:none;stroke:#4fc1eb;stroke-width:3;stroke-miterlimit:10" /><path
       inkscape:connector-curvature="0"
       id="XMLID_7227_"
       class="st13"
       d="m 723.9,-25.7 c -2.8,2.4 -6.5,3.9 -10.5,3.9 -8.9,0 -16.1,-7.2 -16.1,-16.1 0,-8.9 7.2,-16.1 16.1,-16.1 8.9,0 16.1,7.2 16.1,16.1 0,2.7 -0.7,5.3 -1.9,7.6"
       style="fill:none;stroke:#4fc1eb;stroke-width:3;stroke-miterlimit:10" /><path
       inkscape:connector-curvature="0"
       id="XMLID_7226_"
       class="st13"
       d="m 738.4,128.4 c -0.9,0.8 -2.2,1.3 -3.5,1.3 -3,0 -5.4,-2.4 -5.4,-5.4 0,-3 2.4,-5.4 5.4,-5.4 3,0 5.4,2.4 5.4,5.4 0,0.9 -0.2,1.8 -0.6,2.5"
       style="fill:none;stroke:#4fc1eb;stroke-width:3;stroke-miterlimit:10" /><path
       inkscape:connector-curvature="0"
       id="XMLID_7222_"
       class="st12"
       d="m 776.6,72.4 c -1.9,1.6 -4.3,2.6 -7,2.6 -5.9,0 -10.7,-4.8 -10.7,-10.7 0,-5.9 4.8,-10.7 10.7,-10.7 5.9,0 10.7,4.8 10.7,10.7 0,1.8 -0.5,3.5 -1.3,5"
       style="fill:none;stroke:#f39200;stroke-width:3;stroke-miterlimit:10" /><path
       inkscape:connector-curvature="0"
       id="XMLID_7218_"
       class="st12"
       d="m 422.9,-49.9 c -0.9,0.8 -2.2,1.3 -3.5,1.3 -3,0 -5.4,-2.4 -5.4,-5.4 0,-3 2.4,-5.4 5.4,-5.4 3,0 5.4,2.4 5.4,5.4 0,0.9 -0.2,1.8 -0.6,2.5"
       style="fill:none;stroke:#f39200;stroke-width:3;stroke-miterlimit:10" /><path
       inkscape:connector-curvature="0"
       id="XMLID_7196_"
       class="st12"
       d="m 893.7,176.5 c -0.9,0.8 -2.2,1.3 -3.5,1.3 -3,0 -5.4,-2.4 -5.4,-5.4 0,-3 2.4,-5.4 5.4,-5.4 3,0 5.4,2.4 5.4,5.4 0,0.9 -0.2,1.8 -0.6,2.5"
       style="fill:none;stroke:#f39200;stroke-width:3;stroke-miterlimit:10" /><path
       style="fill:none;fill-rule:evenodd;stroke:#5d5c74;stroke-width:3.77952766;stroke-linecap:butt;stroke-linejoin:miter;stroke-miterlimit:4;stroke-dasharray:none;stroke-opacity:1"
       d="M 56.295975,433.86292 112.5,236.1"
       id="path4615"
       inkscape:connector-curvature="0"
       sodipodi:nodetypes="cc" /><path
       style="fill:none;fill-rule:evenodd;stroke:#5d5c74;stroke-width:3.77952766;stroke-linecap:round;stroke-linejoin:round;stroke-miterlimit:4;stroke-dasharray:none;stroke-opacity:1"
       d="M 161.53903,206.02748 141.49096,202.96261 109.23139,182.50153 87.933488,206.84555 112.5,236.1 l 14.46334,49.67764 65.68668,-75.0815 -8.07993,-1.09647"
       id="path4617"
       inkscape:connector-curvature="0"
       sodipodi:nodetypes="cccccccc" /><path
       style="display:inline;opacity:1;vector-effect:none;fill:#4fc1ea;fill-opacity:1;stroke:#5c5c74;stroke-width:2.26771665;stroke-linecap:butt;stroke-linejoin:miter;stroke-miterlimit:4;stroke-dasharray:none;stroke-dashoffset:0;stroke-opacity:1"
       d="m 591.4625,231.59728 c -15.94328,7.62307 -27.4128,19.66635 -38.78877,28.17116 -2.57849,-10.86922 -6.37392,-14.75643 -19.19755,-15.80788 l -19.077,-0.11257 c -16.38614,0.38885 -18.48745,11.28699 -19.15726,16.05712 -14.44156,-10.74548 -29.8981,-26.56434 -41.31067,-27.67307 l 2.54102,13.93164 c 1.213,6.64701 11.73,37.11949 36.74009,52.70599 8.94821,4.49611 13.94809,6.11965 20.99702,6.13268 l 17.82687,-0.19661 c 12.42744,-0.51864 16.68746,-3.84539 21.86375,-5.23581 v -0.0547 c 24.7,-14.2 35.63997,-45.98928 36.25196,-52.97461 z m -81.30664,22.38672 25.67776,0.33707 c 7.57164,0.0994 8.45717,9.22707 1.97563,13.08024 -5.67973,2.54068 -7.55599,3.03191 -15.26081,3.03191 -6.56574,0 -8.14872,-0.93604 -13.90131,-3.76083 -5.84723,-2.97403 -5.58672,-12.78153 1.50873,-12.68839 z"
       id="XMLID_7303_-7"
       inkscape:connector-curvature="0"
       sodipodi:nodetypes="ccccccccccccccsscscs" /><path
       inkscape:connector-curvature="0"
       id="XMLID_7300_"
       class="st2"
       d="m 523.1,347.95233 c -23.1,0 -31.4,-14.61525 -31.4,-27.91525 V 299.5 c -22,-14.4 -37.9,-43.1 -37.9,-68.5 0.43309,-11.64195 -0.43901,-51.64754 0.20114,-62.61236 0.88356,-11.98994 5.56848,-41.35579 27.86944,-31.57457 42.93229,18.83015 47.37982,13.1673 81.67556,-0.24071 16.37692,-4.49831 29.18551,5.40063 29.59221,24.49311 L 592.9,230.9 c 0,23.1 -11.9,54.8 -38,70.2 v 18.89597 c 0.1,13.9 -9.8,27.95636 -31.8,27.95636 z M 456.3,170.9 V 231 c 0,24.8 15.7,52.9 37.3,66.7 0.4,0.2 0.6,0.6 0.6,1.1 v 20.81928 c 0,12.2 7.7,25.3947 28.9,25.3947 20.2,0 29.3,-12.39745 29.3,-24.99745 V 300.4 c 0,-0.5 0.2,-0.9 0.6,-1.1 24.5,-14.1 37.24768,-45.10006 37.3,-68.4 l 0.15889,-70.76038 c -0.39019,-14.86027 -10.82232,-25.49784 -26.38418,-20.49313 -27.11202,8.52719 -34.79321,22.01445 -83.86602,-0.21294 C 459.15297,129.89641 457.71273,164.48643 456.3,170.9 Z"
       style="fill:#5c5c74"
       sodipodi:nodetypes="sscccscccccscscssssscsccsc" /></g></g><g
   inkscape:groupmode="layer"
   id="layer10"
   inkscape:label="Logo2"
   style="display:inline"><g
     id="g5165"
     transform="matrix(1.1842334,0.47829357,-0.47829357,1.1842334,-5.2935281,-332.54848)"
     style="stroke:#5d5c74;stroke-width:2.07150269;stroke-miterlimit:4;stroke-dasharray:none;stroke-opacity:1"><g
       id="g8850"><path
         style="fill:#5d993c;fill-opacity:1;fill-rule:evenodd;stroke:#424242;stroke-width:2.07150269;stroke-linecap:butt;stroke-linejoin:miter;stroke-miterlimit:4;stroke-dasharray:none;stroke-opacity:1"
         d="m 617.18286,404.77786 14.10093,34.831 4.66286,-10.28076 -7.97742,-19.99974 z"
         id="path5078"
         inkscape:connector-curvature="0" /><path
         style="fill:#7cb662;fill-opacity:1;fill-rule:evenodd;stroke:#424242;stroke-width:2.07150269;stroke-linecap:butt;stroke-linejoin:miter;stroke-miterlimit:4;stroke-dasharray:none;stroke-opacity:1"
         d="m 604.27295,409.23522 -3.61556,8.42439 30.09843,22.96756 3.70205,-8.04398 z"
         id="path5080"
         inkscape:connector-curvature="0"
         sodipodi:nodetypes="ccccc" /><path
         style="fill:#3894d3;fill-opacity:1;fill-rule:evenodd;stroke:#424242;stroke-width:2.07150269;stroke-linecap:butt;stroke-linejoin:miter;stroke-miterlimit:4;stroke-dasharray:none;stroke-opacity:1"
         d="m 599.09321,421.0136 4.66286,-10.89873 13.82004,35.22425 -10.61784,-4.66286 z"
         id="path5082"
         inkscape:connector-curvature="0" /></g></g></g></svg>